<?xml version="1.0" encoding="iso-8859-1"?>
<!-- Generator: Adobe Illustrator 19.0.0, SVG Export Plug-In . SVG Version: 6.00 Build 0)  -->
<svg version="1.1" id="Layer_1" xmlns="http://www.w3.org/2000/svg" xmlns:xlink="http://www.w3.org/1999/xlink" x="0px" y="0px"
	 viewBox="0 0 435.748 435.748" style="enable-background:new 0 0 435.748 435.748;" xml:space="preserve">
<g>
	<path style="fill:#F7B239;" d="M297.769,408.748v7.5c0,7.46-6.04,13.5-13.5,13.5s-13.5-6.04-13.5-13.5v-7.5
		c0-7.45,6.04-13.5,13.5-13.5c3.73,0,7.11,1.51,9.55,3.96C296.259,401.647,297.769,405.018,297.769,408.748z"/>
	<path style="fill:#3A88D6;" d="M348.819,97.047c35.69,5.18,49.94,49.04,24.12,74.209l-29.59,28.841
		c-10.25,9.99-14.93,24.39-12.51,38.51l6.98,40.72c5.5,32.031-24.259,57.21-53.549,49.591c-3.211-0.84-6.42-2.07-9.581-3.731
		l-36.57-19.219c-12.67-6.661-27.81-6.661-40.489,0l-36.57,19.219c-31.921,16.791-69.221-10.319-63.13-45.86l6.989-40.72
		c2.421-14.12-2.26-28.52-12.52-38.51l-29.58-28.841c-25.829-25.169-11.58-69.03,24.11-74.209l40.89-5.95
		c14.17-2.051,26.42-10.961,32.76-23.8l18.28-37.051c15.96-32.33,62.07-32.33,78.03,0l18.29,37.051
		c6.34,12.839,18.59,21.749,32.76,23.8L348.819,97.047 M280.538,152.157c0-9.2-7.459-16.67-16.659-16.67
		c-9.211,0-16.671,7.47-16.671,16.67s7.46,16.67,16.671,16.67C273.079,168.827,280.538,161.357,280.538,152.157 M243.879,181.487
		h-52.001c0,14.36,11.64,26,26,26C232.238,207.487,243.879,195.847,243.879,181.487 M188.538,152.157c0-9.2-7.46-16.67-16.659-16.67
		c-9.211,0-16.671,7.47-16.671,16.67s7.46,16.67,16.671,16.67C181.078,168.827,188.538,161.357,188.538,152.157"/>
	<path style="fill:#A5A5A5;" d="M275.579,325.643c0.123,0.062,0.246,0.122,0.37,0.183
		C275.825,325.765,275.702,325.704,275.579,325.643 M236.646,305.229c-0.008,0.003-0.015,0.007-0.022,0.01
		c0.499,0.238,1.002,0.469,1.495,0.729C237.631,305.711,237.14,305.465,236.646,305.229"/>
	<path style="fill:#37638E;" d="M255.409,300.982c-6.413,0-12.828,1.417-18.763,4.247c0.494,0.236,0.985,0.482,1.472,0.739l0,0
		l36.57,19.219c0.296,0.156,0.593,0.308,0.89,0.456c0.123,0.062,0.246,0.122,0.37,0.183c2.752,1.342,5.536,2.364,8.319,3.091
		c3.568,0.928,7.142,1.369,10.658,1.369c6.61,0,13.015-1.556,18.79-4.349c-0.51-0.245-1.021-0.482-1.529-0.75l-36.57-19.219
		C269.291,302.642,262.351,300.982,255.409,300.982"/>
	<path style="fill:#A5A5A5;" d="M146.79,329.858c-0.016,0.002-0.03,0.004-0.046,0.006C146.76,329.862,146.775,329.86,146.79,329.858
		 M146.947,329.835c-0.026,0.004-0.052,0.008-0.078,0.012C146.894,329.843,146.922,329.839,146.947,329.835 M147.1,329.813
		c-0.028,0.004-0.056,0.008-0.083,0.012C147.044,329.821,147.073,329.816,147.1,329.813 M147.261,329.788
		c-0.034,0.005-0.064,0.01-0.098,0.015C147.197,329.797,147.228,329.793,147.261,329.788 M147.418,329.763
		c-0.036,0.005-0.074,0.011-0.109,0.017C147.346,329.774,147.381,329.769,147.418,329.763 M147.581,329.737
		c-0.042,0.007-0.078,0.013-0.12,0.02C147.5,329.75,147.542,329.743,147.581,329.737 M147.743,329.71
		c-0.044,0.007-0.087,0.014-0.13,0.021C147.655,329.725,147.7,329.717,147.743,329.71 M147.913,329.682
		c-0.05,0.008-0.1,0.017-0.149,0.025C147.813,329.699,147.865,329.69,147.913,329.682 M151.574,328.889
		c-1.218,0.32-2.442,0.584-3.659,0.792C149.133,329.473,150.356,329.209,151.574,328.889 M152.684,328.582
		c-0.371,0.108-0.738,0.209-1.109,0.307C151.945,328.792,152.315,328.689,152.684,328.582 M152.833,328.539
		c-0.04,0.012-0.077,0.022-0.117,0.034C152.754,328.562,152.796,328.549,152.833,328.539 M152.984,328.494
		c-0.028,0.008-0.055,0.017-0.083,0.025C152.928,328.51,152.956,328.502,152.984,328.494 M153.133,328.449
		c-0.024,0.007-0.048,0.015-0.072,0.022C153.086,328.463,153.107,328.457,153.133,328.449 M153.277,328.405
		c-0.016,0.005-0.035,0.011-0.05,0.016C153.242,328.416,153.262,328.41,153.277,328.405 M153.423,328.36
		c-0.014,0.004-0.025,0.008-0.039,0.012C153.395,328.369,153.411,328.364,153.423,328.36 M153.564,328.315
		c-0.008,0.002-0.015,0.005-0.023,0.007C153.548,328.321,153.559,328.317,153.564,328.315 M153.708,328.271
		c-0.006,0.002-0.009,0.003-0.015,0.005C153.698,328.273,153.702,328.272,153.708,328.271 M97.822,279.982c0,0.002,0,0.001,0,0.003
		V279.982 M105.545,231.326c-0.004,2.419-0.21,4.854-0.626,7.281l-6.989,40.72c-0.01,0.056-0.019,0.109-0.028,0.165
		c0.009-0.054,0.019-0.111,0.028-0.165l6.989-40.72C105.334,236.181,105.54,233.746,105.545,231.326 M179.042,29.879
		c-0.061,0.122-0.123,0.245-0.184,0.368l-18.28,37.051c-6.34,12.839-18.59,21.749-32.76,23.8l-40.89,5.95
		c-23.143,3.358-37.271,22.981-37.301,43.226c0.031-20.245,14.158-39.868,37.301-43.226l40.89-5.95
		c14.17-2.051,26.42-10.961,32.76-23.8l18.28-37.051C178.919,30.125,178.981,30.001,179.042,29.879 M179.53,28.939
		c-0.156,0.293-0.31,0.59-0.462,0.889C179.22,29.529,179.373,29.233,179.53,28.939 M181.187,26.086
		c-0.572,0.908-1.118,1.846-1.636,2.815C180.068,27.933,180.615,26.993,181.187,26.086 M181.295,25.915
		c-0.03,0.047-0.06,0.094-0.09,0.142C181.235,26.009,181.266,25.961,181.295,25.915 M181.405,25.744
		c-0.013,0.02-0.026,0.04-0.039,0.061C181.379,25.783,181.391,25.765,181.405,25.744 M181.515,25.573
		c-0.008,0.013-0.017,0.026-0.025,0.039C181.498,25.599,181.507,25.586,181.515,25.573 M181.625,25.404
		c-0.006,0.009-0.011,0.018-0.017,0.026C181.614,25.421,181.62,25.413,181.625,25.404"/>
	<path style="fill:#37638E;" d="M217.848,6.018c-13.874,0-27.741,6.457-36.222,19.386c-0.006,0.009-0.011,0.018-0.017,0.026
		c-0.031,0.047-0.063,0.096-0.094,0.143c-0.008,0.013-0.017,0.026-0.025,0.039c-0.028,0.044-0.057,0.088-0.085,0.132
		c-0.014,0.021-0.025,0.039-0.039,0.061c-0.023,0.037-0.047,0.073-0.07,0.11c-0.03,0.046-0.06,0.095-0.09,0.142
		c-0.006,0.01-0.013,0.02-0.019,0.03c-0.572,0.907-1.118,1.847-1.636,2.815c-0.007,0.012-0.014,0.026-0.02,0.038
		c-0.157,0.293-0.31,0.589-0.462,0.889c-0.009,0.018-0.017,0.033-0.026,0.051c-0.061,0.122-0.123,0.245-0.184,0.368l-18.28,37.051
		c-6.34,12.839-18.59,21.749-32.76,23.8l-40.89,5.95c-23.143,3.358-37.271,22.981-37.301,43.226
		c-0.017,10.976,4.11,22.135,13.191,30.983l29.58,28.841c8.497,8.273,13.167,19.57,13.147,31.229
		c-0.004,2.419-0.21,4.854-0.626,7.281l-6.989,40.72c-0.009,0.054-0.019,0.111-0.028,0.165c-0.027,0.162-0.054,0.329-0.08,0.49
		v0.003c-4.361,27.813,17.83,50.3,42.978,50.3c1.967,0,3.954-0.138,5.946-0.421c0.016-0.002,0.03-0.004,0.046-0.006
		c0.027-0.004,0.051-0.007,0.079-0.011c0.026-0.004,0.052-0.008,0.078-0.012c0.023-0.003,0.046-0.007,0.07-0.01
		c0.028-0.004,0.056-0.008,0.083-0.012c0.021-0.003,0.043-0.006,0.064-0.01c0.034-0.005,0.064-0.01,0.098-0.015
		c0.016-0.002,0.032-0.005,0.048-0.007c0.036-0.006,0.074-0.012,0.109-0.017c0.014-0.002,0.028-0.005,0.042-0.007
		c0.042-0.007,0.078-0.013,0.12-0.02c0.012-0.002,0.02-0.003,0.032-0.005c0.044-0.007,0.087-0.014,0.13-0.021
		c0.008-0.001,0.014-0.002,0.021-0.004c0.05-0.008,0.1-0.017,0.149-0.025c0.002,0,0,0,0.002,0c1.217-0.208,2.441-0.472,3.659-0.792
		c0.002,0-0.001,0,0.001,0c0.371-0.098,0.738-0.199,1.109-0.307c0.012-0.003,0.021-0.006,0.032-0.009
		c0.04-0.012,0.077-0.022,0.117-0.034c0.023-0.007,0.044-0.013,0.067-0.02c0.028-0.008,0.055-0.017,0.083-0.025
		c0.025-0.007,0.052-0.016,0.077-0.023c0.024-0.007,0.048-0.015,0.072-0.022c0.031-0.009,0.063-0.019,0.094-0.028
		c0.016-0.005,0.035-0.011,0.05-0.016c0.037-0.011,0.069-0.021,0.106-0.033c0.014-0.004,0.025-0.008,0.039-0.012
		c0.041-0.013,0.078-0.024,0.119-0.037c0.008-0.002,0.015-0.005,0.023-0.007c0.043-0.013,0.085-0.026,0.128-0.04
		c0.006-0.002,0.009-0.003,0.015-0.005c1.956-0.622,3.904-1.394,5.837-2.322c-16.383-7.915-27.682-25.821-24.118-46.621l6.99-40.72
		c2.421-14.12-2.26-28.52-12.52-38.51l-29.58-28.841c-25.83-25.169-11.58-69.03,24.111-74.209l40.89-5.95
		c14.17-2.051,26.42-10.961,32.76-23.8l18.279-37.051c4.674-9.465,11.938-16.138,20.266-20.06
		C230.722,7.408,224.284,6.018,217.848,6.018"/>
	<path style="fill:#F7B239;" d="M263.879,135.487c9.2,0,16.66,7.47,16.66,16.67s-7.46,16.67-16.66,16.67
		c-9.21,0-16.67-7.47-16.67-16.67C247.209,142.958,254.669,135.487,263.879,135.487z"/>
	<path style="fill:#F7B239;" d="M191.879,181.487h52c0,14.36-11.64,26-26,26S191.879,195.847,191.879,181.487z"/>
	<path style="fill:#F7B239;" d="M171.879,135.487c9.2,0,16.66,7.47,16.66,16.67s-7.46,16.67-16.66,16.67
		c-9.21,0-16.67-7.47-16.67-16.67C155.209,142.958,162.669,135.487,171.879,135.487z"/>
	<path style="fill:#FFFFFF;" d="M364.923,138.837c-2.529,0-4.881-1.611-5.705-4.146c-2.138-6.578-7.292-10.92-14.142-11.914
		l-40.865-5.948c-22.637-3.275-42.208-17.489-52.347-38.021l-8.891-18.01c-1.467-2.971-0.247-6.569,2.725-8.036
		c2.969-1.466,6.569-0.248,8.036,2.725l8.89,18.009c8.389,16.988,24.58,28.749,43.31,31.458l40.868,5.948
		c11.369,1.65,20.277,9.157,23.828,20.08c1.024,3.152-0.7,6.537-3.851,7.561C366.162,138.742,365.537,138.837,364.923,138.837z"/>
	<path style="fill:#FFFFFF;" d="M238.958,45.103c-0.39,0-0.79-0.04-1.18-0.12c-0.38-0.08-0.76-0.19-1.12-0.34s-0.71-0.34-1.03-0.55
		c-0.33-0.22-0.64-0.47-0.92-0.75c-0.27-0.28-0.52-0.58-0.74-0.91c-0.22-0.33-0.4-0.68-0.55-1.04c-0.15-0.36-0.27-0.74-0.35-1.12
		c-0.07-0.39-0.11-0.78-0.11-1.17s0.04-0.79,0.11-1.17c0.08-0.39,0.2-0.77,0.35-1.13c0.15-0.36,0.33-0.71,0.55-1.03
		c0.22-0.33,0.47-0.64,0.74-0.92c0.28-0.27,0.59-0.52,0.92-0.74c0.32-0.22,0.67-0.4,1.03-0.55s0.74-0.27,1.12-0.34
		c0.78-0.16,1.58-0.16,2.35,0c0.38,0.07,0.76,0.19,1.12,0.34s0.71,0.33,1.04,0.55c0.33,0.22,0.63,0.47,0.91,0.74
		c0.28,0.28,0.53,0.59,0.75,0.92c0.21,0.32,0.4,0.67,0.55,1.03c0.15,0.36,0.26,0.74,0.34,1.13c0.08,0.38,0.12,0.78,0.12,1.17
		c0,1.58-0.64,3.12-1.76,4.24c-0.28,0.28-0.58,0.53-0.91,0.75c-0.33,0.21-0.68,0.4-1.04,0.55c-0.36,0.15-0.74,0.26-1.12,0.34
		C239.738,45.063,239.348,45.103,238.958,45.103z"/>
	<path style="fill:#FFFFFF;" d="M304.87,314.008c-2.245,0-4.398-1.266-5.425-3.429c-1.42-2.994-0.145-6.572,2.849-7.993
		c2.375-1.127,4.519-2.776,6.199-4.769c3.374-4.002,4.619-8.745,3.7-14.095L305.213,243c-0.956-5.571-1.229-11.251-0.811-16.883
		c0.244-3.305,3.127-5.792,6.427-5.54c3.305,0.245,5.785,3.122,5.54,6.427c-0.345,4.658-0.119,9.358,0.671,13.969l6.98,40.72
		c1.925,11.208-2.392,19.16-6.352,23.858c-2.777,3.295-6.315,6.019-10.229,7.877C306.608,313.821,305.733,314.008,304.87,314.008z"
		/>
	<path style="fill:#333333;" d="M389.65,124.799c-5.868-18.054-21.184-30.963-39.967-33.689l-40.885-5.951
		c-12.21-1.767-22.767-9.437-28.239-20.518l-18.29-37.05C253.867,10.572,236.856,0,217.873,0c-18.982,0-35.993,10.572-44.396,27.593
		l-18.279,37.048c-5.472,11.082-16.029,18.752-28.245,20.519l-40.888,5.95c-18.788,2.727-34.103,15.637-39.969,33.692
		c-5.867,18.056-1.064,37.503,12.533,50.752l29.583,28.843c8.845,8.612,12.879,21.022,10.792,33.196l-6.991,40.722
		c-3.207,18.714,4.345,37.27,19.707,48.427c15.357,11.154,35.333,12.593,52.129,3.757l36.568-19.219
		c10.934-5.744,23.984-5.744,34.908-0.001l36.572,19.221c2.068,1.086,4.201,2.01,6.37,2.8v56.902
		c-7.824,2.538-13.5,9.887-13.5,18.546v7.5c0,10.752,8.748,19.5,19.5,19.5s19.5-8.748,19.5-19.5v-7.5
		c0-5.208-2.027-10.102-5.699-13.774c-2.219-2.229-4.889-3.84-7.801-4.778v-54.159c1.573,0.154,3.146,0.254,4.716,0.254
		c12.202,0,24.168-4.61,33.551-13.233c12.559-11.54,18.097-27.85,15.196-44.745l-6.98-40.72c-2.086-12.173,1.945-24.585,10.785-33.2
		l29.59-28.84C390.72,162.303,395.519,142.855,389.65,124.799z M291.769,416.248c0,4.136-3.364,7.5-7.5,7.5s-7.5-3.364-7.5-7.5v-7.5
		c0-4.136,3.364-7.5,7.5-7.5c2.008,0,3.89,0.779,5.307,2.203c1.414,1.414,2.193,3.295,2.193,5.297V416.248z M368.751,166.96
		l-29.59,28.84c-11.667,11.372-16.99,27.754-14.236,43.821l6.98,40.722c2.198,12.802-1.989,25.15-11.488,33.879
		c-9.507,8.735-22.456,12.058-34.629,8.891c-2.838-0.743-5.634-1.833-8.308-3.237l-36.57-19.22c-14.418-7.579-31.641-7.58-46.073,0
		l-36.571,19.221c-12.92,6.795-27.683,5.731-39.493-2.846c-11.815-8.581-17.397-22.297-14.931-36.689l6.99-40.721
		c2.754-16.071-2.572-32.454-14.245-43.82L67.006,166.96c-10.458-10.19-14.008-24.564-9.496-38.451
		c4.512-13.885,15.832-23.427,30.282-25.524l40.885-5.95c16.123-2.332,30.059-12.456,37.282-27.083l18.279-37.049
		C190.7,19.814,203.274,12,217.873,12c14.6,0,27.173,7.814,33.635,20.903l18.291,37.051c7.222,14.625,21.159,24.749,37.276,27.081
		l40.882,5.951c14.448,2.097,25.768,11.639,30.281,25.523C382.752,142.396,379.205,156.77,368.751,166.96z"/>
	<path style="fill:#333333;" d="M263.879,174.827c-12.5,0-22.67-10.17-22.67-22.67s10.17-22.67,22.67-22.67
		c12.495,0,22.66,10.17,22.66,22.67S276.373,174.827,263.879,174.827z M263.879,141.487c-5.883,0-10.67,4.787-10.67,10.67
		s4.787,10.67,10.67,10.67c5.878,0,10.66-4.787,10.66-10.67S269.757,141.487,263.879,141.487z"/>
	<path style="fill:#333333;" d="M171.879,174.827c-12.5,0-22.67-10.17-22.67-22.67s10.17-22.67,22.67-22.67
		c12.495,0,22.66,10.17,22.66,22.67S184.373,174.827,171.879,174.827z M171.879,141.487c-5.883,0-10.67,4.787-10.67,10.67
		s4.787,10.67,10.67,10.67c5.878,0,10.66-4.787,10.66-10.67S177.757,141.487,171.879,141.487z"/>
	<path style="fill:#333333;" d="M217.879,213.487c-17.645,0-32-14.355-32-32c0-3.313,2.687-6,6-6h52c3.313,0,6,2.687,6,6
		C249.879,199.132,235.524,213.487,217.879,213.487z M198.798,187.487c2.554,8.106,10.142,14,19.081,14s16.526-5.894,19.081-14
		H198.798z"/>
	<path style="fill:#F7B239;" d="M120.879,53.157c-1.536,0-3.071-0.586-4.243-1.757l-31.5-31.5c-2.343-2.343-2.343-6.142,0-8.485
		s6.143-2.343,8.485,0l31.5,31.5c2.343,2.343,2.343,6.142,0,8.485C123.95,52.571,122.414,53.157,120.879,53.157z"/>
	<path style="fill:#F7B239;" d="M140.879,35.159c-2.483,0-4.805-1.553-5.667-4.03l-8-23c-1.088-3.13,0.566-6.549,3.696-7.638
		c3.129-1.091,6.549,0.566,7.638,3.696l8,23c1.088,3.13-0.566,6.549-3.696,7.638C142.197,35.051,141.532,35.159,140.879,35.159z"/>
	<path style="fill:#F7B239;" d="M103.882,76.159c-0.532,0-1.072-0.071-1.609-0.22l-18-5c-3.193-0.887-5.062-4.194-4.175-7.387
		c0.887-3.192,4.195-5.06,7.387-4.175l18,5c3.193,0.887,5.062,4.194,4.175,7.387C108.922,74.418,106.51,76.159,103.882,76.159z"/>
	<path style="fill:#F7B239;" d="M314.879,53.157c-1.536,0-3.071-0.586-4.243-1.757c-2.343-2.343-2.343-6.142,0-8.485l31.5-31.5
		c2.343-2.343,6.143-2.343,8.485,0c2.343,2.343,2.343,6.142,0,8.485l-31.5,31.5C317.95,52.571,316.414,53.157,314.879,53.157z"/>
	<path style="fill:#F7B239;" d="M294.879,35.159c-0.654,0-1.318-0.107-1.971-0.334c-3.13-1.089-4.784-4.508-3.696-7.638l8-23
		c1.089-3.129,4.507-4.785,7.638-3.696c3.13,1.089,4.784,4.508,3.696,7.638l-8,23C299.684,33.605,297.362,35.159,294.879,35.159z"/>
	<path style="fill:#F7B239;" d="M331.875,76.159c-2.628,0-5.04-1.74-5.778-4.396c-0.887-3.193,0.982-6.5,4.175-7.387l18-5
		c3.193-0.885,6.5,0.982,7.387,4.175c0.887,3.193-0.982,6.5-4.175,7.387l-18,5C332.947,76.087,332.407,76.159,331.875,76.159z"/>
	<path style="fill:#FFFFFF;" d="M126.918,285.802c-1.58,0-3.13-0.64-4.24-1.76c-0.28-0.27-0.53-0.58-0.75-0.91
		c-0.22-0.32-0.4-0.67-0.55-1.03c-0.15-0.37-0.27-0.74-0.34-1.13c-0.08-0.38-0.12-0.78-0.12-1.17c0-1.58,0.64-3.12,1.76-4.24
		c1.11-1.12,2.66-1.76,4.24-1.76s3.13,0.64,4.24,1.76c1.12,1.12,1.76,2.66,1.76,4.24c0,0.39-0.04,0.79-0.12,1.17
		c-0.07,0.39-0.19,0.76-0.34,1.13c-0.15,0.36-0.34,0.71-0.55,1.03c-0.22,0.33-0.47,0.64-0.75,0.91
		C130.038,285.163,128.498,285.802,126.918,285.802z"/>
	<path style="fill:#FFFFFF;" d="M151.088,284.072c-1.58,0-3.13-0.65-4.24-1.76c-1.12-1.12-1.76-2.67-1.76-4.24
		c0-1.59,0.64-3.13,1.76-4.25c0.27-0.27,0.58-0.53,0.91-0.74c0.32-0.22,0.67-0.41,1.03-0.56c0.37-0.15,0.74-0.26,1.13-0.34
		c0.77-0.15,1.57-0.15,2.34,0c0.38,0.08,0.76,0.19,1.12,0.34c0.37,0.15,0.71,0.34,1.04,0.56c0.33,0.21,0.64,0.47,0.91,0.74
		c1.12,1.12,1.76,2.66,1.76,4.25c0,1.57-0.64,3.12-1.76,4.24c-0.27,0.27-0.58,0.52-0.91,0.74s-0.67,0.4-1.04,0.55
		c-0.36,0.16-0.74,0.27-1.12,0.35C151.868,284.032,151.478,284.072,151.088,284.072z"/>
	<path style="fill:#FFFFFF;" d="M139.448,304.732c-1.58,0-3.13-0.64-4.24-1.76c-0.28-0.27-0.53-0.58-0.75-0.91
		c-0.21-0.33-0.4-0.67-0.55-1.04c-0.15-0.36-0.26-0.74-0.34-1.12c-0.08-0.39-0.12-0.78-0.12-1.17s0.04-0.79,0.12-1.17
		c0.08-0.39,0.19-0.77,0.34-1.13c0.15-0.36,0.34-0.71,0.55-1.03c0.22-0.33,0.47-0.64,0.75-0.92c1.39-1.39,3.46-2.03,5.41-1.63
		c0.39,0.07,0.76,0.19,1.12,0.34c0.37,0.15,0.72,0.33,1.04,0.55c0.33,0.22,0.64,0.47,0.91,0.74c0.28,0.28,0.53,0.59,0.75,0.92
		c0.21,0.32,0.4,0.67,0.55,1.03c0.15,0.36,0.27,0.74,0.34,1.13c0.08,0.38,0.12,0.78,0.12,1.17s-0.04,0.78-0.12,1.17
		c-0.07,0.38-0.19,0.76-0.34,1.12c-0.15,0.37-0.34,0.71-0.55,1.04c-0.22,0.33-0.47,0.64-0.75,0.91c-0.27,0.28-0.58,0.53-0.91,0.75
		c-0.32,0.21-0.67,0.4-1.04,0.55c-0.36,0.15-0.74,0.26-1.12,0.34S139.838,304.732,139.448,304.732z"/>
	<path style="fill:#FFFFFF;" d="M308.828,285.802c-1.57,0-3.12-0.64-4.24-1.76c-0.27-0.27-0.53-0.58-0.74-0.91
		c-0.22-0.32-0.41-0.67-0.56-1.03c-0.15-0.37-0.26-0.74-0.34-1.13c-0.08-0.38-0.11-0.78-0.11-1.17c0-1.58,0.64-3.12,1.75-4.24
		c1.12-1.12,2.67-1.76,4.24-1.76c1.58,0,3.13,0.64,4.25,1.76c1.11,1.12,1.76,2.66,1.76,4.24c0,0.39-0.04,0.79-0.12,1.17
		c-0.08,0.39-0.19,0.76-0.34,1.13c-0.15,0.36-0.34,0.71-0.56,1.03c-0.21,0.33-0.46,0.64-0.74,0.91
		C311.958,285.163,310.408,285.802,308.828,285.802z"/>
	<path style="fill:#FFFFFF;" d="M284.668,284.072c-1.58,0-3.13-0.65-4.25-1.76c-1.11-1.12-1.75-2.67-1.75-4.24
		c0-1.58,0.64-3.13,1.75-4.25c0.28-0.27,0.59-0.53,0.91-0.74c0.33-0.22,0.68-0.41,1.04-0.56s0.74-0.26,1.12-0.34
		c0.78-0.15,1.58-0.15,2.35,0c0.38,0.08,0.76,0.19,1.12,0.34s0.71,0.34,1.04,0.56c0.32,0.21,0.63,0.47,0.91,0.74
		c0.27,0.28,0.53,0.59,0.74,0.91c0.22,0.33,0.41,0.68,0.56,1.04c0.15,0.36,0.26,0.74,0.34,1.12c0.08,0.39,0.12,0.78,0.12,1.18
		c0,1.57-0.64,3.12-1.76,4.24c-0.28,0.27-0.59,0.52-0.91,0.74c-0.33,0.22-0.68,0.4-1.04,0.55c-0.36,0.16-0.74,0.27-1.12,0.35
		C285.448,284.032,285.058,284.072,284.668,284.072z"/>
	<path style="fill:#FFFFFF;" d="M296.308,304.732c-1.58,0-3.13-0.64-4.25-1.76s-1.76-2.66-1.76-4.24c0-0.39,0.04-0.79,0.12-1.17
		c0.08-0.39,0.19-0.77,0.34-1.13c0.15-0.36,0.34-0.71,0.56-1.03c0.21-0.33,0.46-0.64,0.74-0.92c0.28-0.27,0.58-0.52,0.91-0.74
		c0.33-0.22,0.68-0.4,1.04-0.55s0.74-0.27,1.12-0.34c1.95-0.4,4.02,0.24,5.42,1.63c0.27,0.28,0.52,0.59,0.74,0.92
		c0.22,0.32,0.41,0.67,0.56,1.03s0.26,0.74,0.34,1.13c0.08,0.38,0.11,0.78,0.11,1.17s-0.03,0.78-0.11,1.17
		c-0.08,0.38-0.19,0.76-0.34,1.12c-0.15,0.37-0.34,0.71-0.56,1.04c-0.22,0.33-0.47,0.64-0.74,0.91
		C299.428,304.092,297.878,304.732,296.308,304.732z"/>
	<path style="fill:#FFFFFF;" d="M95.628,146.262c-0.39,0-0.78-0.04-1.17-0.12c-0.38-0.07-0.76-0.19-1.12-0.34s-0.71-0.33-1.04-0.55
		s-0.63-0.47-0.91-0.74c-0.28-0.28-0.53-0.59-0.75-0.92c-0.21-0.32-0.4-0.67-0.55-1.03s-0.26-0.74-0.34-1.13
		c-0.08-0.38-0.12-0.78-0.12-1.17s0.04-0.78,0.12-1.17c0.08-0.38,0.19-0.76,0.34-1.12c0.15-0.37,0.34-0.71,0.55-1.04
		c0.22-0.33,0.47-0.63,0.75-0.91s0.58-0.53,0.91-0.75c0.33-0.21,0.68-0.4,1.04-0.55c0.36-0.15,0.74-0.26,1.12-0.34
		c0.77-0.16,1.57-0.16,2.35,0c0.38,0.08,0.76,0.19,1.12,0.34s0.71,0.34,1.03,0.55c0.33,0.22,0.64,0.47,0.92,0.75
		c0.27,0.28,0.52,0.58,0.74,0.91s0.4,0.67,0.55,1.04c0.15,0.36,0.27,0.74,0.35,1.12c0.07,0.39,0.11,0.78,0.11,1.17
		s-0.04,0.79-0.11,1.17c-0.08,0.39-0.2,0.76-0.35,1.13c-0.15,0.36-0.33,0.71-0.55,1.03c-0.22,0.33-0.47,0.64-0.74,0.92
		c-0.28,0.27-0.59,0.52-0.92,0.74c-0.32,0.22-0.67,0.4-1.03,0.55c-0.36,0.15-0.74,0.27-1.12,0.34
		C96.418,146.222,96.018,146.262,95.628,146.262z"/>
	<path style="fill:#FFFFFF;" d="M118.128,155.262c-0.39,0-0.78-0.04-1.17-0.12c-0.38-0.07-0.76-0.19-1.12-0.34s-0.71-0.33-1.04-0.55
		s-0.63-0.47-0.91-0.75c-0.28-0.27-0.53-0.58-0.75-0.91c-0.21-0.32-0.4-0.67-0.55-1.03c-0.15-0.37-0.26-0.74-0.34-1.13
		c-0.08-0.38-0.12-0.78-0.12-1.17c0-1.58,0.64-3.12,1.76-4.24c0.28-0.28,0.58-0.53,0.91-0.75c0.33-0.21,0.68-0.4,1.04-0.55
		c0.36-0.15,0.74-0.26,1.12-0.34c0.77-0.16,1.57-0.16,2.34,0c0.39,0.08,0.77,0.19,1.13,0.34s0.71,0.34,1.03,0.55
		c0.33,0.22,0.64,0.47,0.92,0.75c1.11,1.11,1.75,2.66,1.75,4.24s-0.64,3.13-1.75,4.24c-0.28,0.28-0.59,0.53-0.92,0.75
		c-0.32,0.22-0.67,0.4-1.03,0.55c-0.37,0.15-0.74,0.27-1.13,0.34C118.918,155.222,118.518,155.262,118.128,155.262z"/>
	<path style="fill:#FFFFFF;" d="M98.628,168.762c-0.39,0-0.78-0.04-1.17-0.12c-0.38-0.07-0.76-0.19-1.12-0.34s-0.71-0.34-1.04-0.55
		c-0.33-0.22-0.63-0.47-0.91-0.75c-0.28-0.27-0.53-0.58-0.75-0.91c-0.21-0.32-0.4-0.67-0.55-1.03c-0.15-0.37-0.26-0.74-0.34-1.13
		c-0.08-0.38-0.12-0.78-0.12-1.17s0.04-0.78,0.12-1.17c0.08-0.38,0.19-0.76,0.34-1.12c0.15-0.37,0.34-0.71,0.55-1.04
		c0.22-0.33,0.47-0.64,0.75-0.91c0.28-0.28,0.58-0.53,0.91-0.75c0.33-0.21,0.68-0.4,1.04-0.55c0.36-0.15,0.74-0.26,1.12-0.34
		c0.77-0.16,1.57-0.16,2.35,0c0.38,0.08,0.76,0.19,1.12,0.34s0.71,0.34,1.03,0.55c0.33,0.22,0.64,0.47,0.92,0.75
		c0.27,0.27,0.52,0.58,0.74,0.91s0.4,0.67,0.55,1.04c0.15,0.36,0.27,0.74,0.35,1.12c0.07,0.39,0.11,0.78,0.11,1.17
		c0,1.58-0.64,3.13-1.75,4.24C101.758,168.123,100.208,168.762,98.628,168.762z"/>
	<path style="fill:#FFFFFF;" d="M340.118,146.262c-1.58,0-3.13-0.64-4.24-1.75c-0.28-0.28-0.53-0.59-0.75-0.92
		c-0.21-0.32-0.4-0.67-0.55-1.03s-0.26-0.74-0.34-1.13c-0.08-0.38-0.12-0.78-0.12-1.17s0.04-0.78,0.12-1.17
		c0.08-0.38,0.19-0.76,0.34-1.12c0.15-0.37,0.34-0.71,0.55-1.04c0.22-0.33,0.47-0.63,0.75-0.91c1.39-1.39,3.46-2.03,5.41-1.64
		c0.39,0.08,0.76,0.19,1.13,0.34c0.36,0.15,0.71,0.34,1.03,0.55c0.33,0.22,0.64,0.47,0.91,0.75c0.28,0.28,0.53,0.58,0.75,0.91
		s0.4,0.67,0.55,1.04c0.15,0.36,0.27,0.74,0.34,1.12c0.08,0.39,0.12,0.78,0.12,1.17s-0.04,0.79-0.12,1.17
		c-0.07,0.39-0.19,0.76-0.34,1.13c-0.15,0.36-0.33,0.71-0.55,1.03c-0.22,0.33-0.47,0.64-0.75,0.92c-0.27,0.27-0.58,0.52-0.91,0.74
		c-0.32,0.22-0.67,0.4-1.03,0.55c-0.37,0.15-0.74,0.27-1.13,0.34C340.908,146.222,340.508,146.262,340.118,146.262z"/>
	<path style="fill:#FFFFFF;" d="M317.618,155.262c-0.39,0-0.78-0.04-1.17-0.12c-0.38-0.07-0.76-0.19-1.12-0.34
		c-0.37-0.15-0.71-0.33-1.04-0.55c-0.33-0.22-0.63-0.47-0.91-0.75c-0.28-0.27-0.53-0.58-0.75-0.91c-0.21-0.32-0.4-0.67-0.55-1.03
		c-0.15-0.37-0.26-0.74-0.34-1.13c-0.08-0.38-0.12-0.78-0.12-1.17c0-1.58,0.64-3.12,1.76-4.24c0.28-0.28,0.58-0.53,0.91-0.75
		c0.33-0.21,0.67-0.4,1.04-0.55c0.36-0.15,0.74-0.26,1.12-0.34c0.77-0.16,1.57-0.16,2.34,0c0.39,0.08,0.76,0.19,1.13,0.34
		c0.36,0.15,0.71,0.34,1.03,0.55c0.33,0.22,0.64,0.47,0.92,0.75c1.11,1.11,1.75,2.66,1.75,4.24s-0.64,3.13-1.75,4.24
		c-0.28,0.28-0.59,0.53-0.92,0.75c-0.32,0.22-0.67,0.4-1.03,0.55c-0.37,0.15-0.74,0.27-1.13,0.34
		C318.408,155.222,318.008,155.262,317.618,155.262z"/>
	<path style="fill:#FFFFFF;" d="M337.118,168.762c-0.39,0-0.78-0.04-1.17-0.12c-0.38-0.07-0.76-0.19-1.12-0.34
		c-0.37-0.15-0.71-0.34-1.04-0.55c-0.33-0.22-0.64-0.47-0.91-0.75c-1.12-1.11-1.76-2.66-1.76-4.24c0-0.39,0.04-0.78,0.12-1.17
		c0.08-0.38,0.19-0.76,0.34-1.12c0.15-0.37,0.34-0.71,0.55-1.04c0.22-0.33,0.47-0.64,0.75-0.91c0.27-0.28,0.58-0.53,0.91-0.75
		c0.33-0.21,0.67-0.4,1.04-0.55c0.36-0.15,0.74-0.26,1.12-0.34c0.77-0.16,1.57-0.16,2.34,0c0.39,0.08,0.76,0.19,1.13,0.34
		c0.36,0.15,0.71,0.34,1.03,0.55c0.33,0.22,0.64,0.47,0.91,0.75c0.28,0.27,0.53,0.58,0.75,0.91s0.4,0.67,0.55,1.04
		c0.15,0.36,0.27,0.74,0.34,1.12c0.08,0.39,0.12,0.78,0.12,1.17c0,1.58-0.64,3.13-1.76,4.24c-0.27,0.28-0.58,0.53-0.91,0.75
		c-0.32,0.21-0.67,0.4-1.03,0.55c-0.37,0.15-0.74,0.27-1.13,0.34C337.908,168.722,337.508,168.762,337.118,168.762z"/>
</g>
<g>
</g>
<g>
</g>
<g>
</g>
<g>
</g>
<g>
</g>
<g>
</g>
<g>
</g>
<g>
</g>
<g>
</g>
<g>
</g>
<g>
</g>
<g>
</g>
<g>
</g>
<g>
</g>
<g>
</g>
</svg>
